name E:\Dropbox\SEL\BOX\Experiment\240124_SUB1_PJH\c3d\XYZ\UpDown_TrcMot\15_10_trial2_D1_ExtLoadAPP3.mot
datacolumns 37
datarows 11
range 8.15 8.16
endheader

time	    ground_force1_vx	    ground_force1_vy	    ground_force1_vz	    ground_force1_px	    ground_force1_py	    ground_force1_pz	    ground_torque1_x	    ground_torque1_y	    ground_torque1_z	    ground_force2_vx	    ground_force2_vy	    ground_force2_vz	    ground_force2_px	    ground_force2_py	    ground_force2_pz	    ground_torque2_x	    ground_torque2_y	    ground_torque2_z	      hand_force3_vx	      hand_force3_vy	      hand_force3_vz	      hand_force3_px	      hand_force3_py	      hand_force3_pz	      hand_torque3_x	      hand_torque3_y	      hand_torque3_z	      hand_force4_vx	      hand_force4_vy	      hand_force4_vz	      hand_force4_px	      hand_force4_py	      hand_force4_pz	      hand_torque4_x	      hand_torque4_y	      hand_torque4_z	
8.15	         32.77840077	        466.23752885	         -6.00055140	          0.22659290	          0.00000000	          0.26893899	          0.00000000	         -6.05235325	          0.00000000	        -34.03683795	        451.22468260	        -16.80536588	          0.57126421	          0.00000000	          0.25176291	          0.00000000	          3.38092910	          0.00000000	          0.00000000	          0.00000000	          0.00000000	          0.13585578	          0.53315837	         -0.00595615	          0.00000000	          0.00000000	          0.00000000	          0.00000000	          0.00000000	          0.00000000	          0.64951689	          0.55914487	         -0.01508368	          0.00000000	          0.00000000	          0.00000000	
8.151	         32.85012985	        466.78641339	         -5.97933369	          0.22659252	          0.00000000	          0.26897322	          0.00000000	         -6.07047437	          0.00000000	        -34.04377576	        451.43253313	        -16.68720716	          0.57128512	          0.00000000	          0.25160395	          0.00000000	          3.38263974	          0.00000000	          0.00000000	          0.00000000	          0.00000000	          0.13591059	          0.53247140	         -0.00626309	          0.00000000	          0.00000000	          0.00000000	          0.00000000	          0.00000000	          0.00000000	          0.64948419	          0.55850747	         -0.01535083	          0.00000000	          0.00000000	          0.00000000	
8.152	         32.92909700	        467.35171317	         -5.95552782	          0.22659217	          0.00000000	          0.26900949	          0.00000000	         -6.08878785	          0.00000000	        -34.05065152	        451.65469151	        -16.56582722	          0.57130513	          0.00000000	          0.25144690	          0.00000000	          3.38428650	          0.00000000	          0.00000000	          0.00000000	          0.00000000	          0.13596140	          0.53178894	         -0.00657004	          0.00000000	          0.00000000	          0.00000000	          0.00000000	          0.00000000	          0.00000000	          0.64945139	          0.55787340	         -0.01561846	          0.00000000	          0.00000000	          0.00000000	
8.153	         33.01515902	        467.93229749	         -5.92918845	          0.22659181	          0.00000000	          0.26904766	          0.00000000	         -6.10728505	          0.00000000	        -34.05747058	        451.89164267	        -16.44139786	          0.57132421	          0.00000000	          0.25129194	          0.00000000	          3.38586829	          0.00000000	          0.00000000	          0.00000000	          0.00000000	          0.13600795	          0.53111108	         -0.00687694	          0.00000000	          0.00000000	          0.00000000	          0.00000000	          0.00000000	          0.00000000	          0.64941849	          0.55724265	         -0.01588653	          0.00000000	          0.00000000	          0.00000000	
8.154	         33.10814970	        468.52698547	         -5.90038357	          0.22659139	          0.00000000	          0.26908755	          0.00000000	         -6.12595681	          0.00000000	        -34.06424027	        452.14383874	        -16.31410047	          0.57134233	          0.00000000	          0.25113920	          0.00000000	          3.38738413	          0.00000000	          0.00000000	          0.00000000	          0.00000000	          0.13605001	          0.53043793	         -0.00718377	          0.00000000	          0.00000000	          0.00000000	          0.00000000	          0.00000000	          0.00000000	          0.64938553	          0.55661520	         -0.01615502	          0.00000000	          0.00000000	          0.00000000	
8.155	         33.20788042	        469.13455117	         -5.86919429	          0.22659086	          0.00000000	          0.26912901	          0.00000000	         -6.14479351	          0.00000000	        -34.07096992	        452.41169735	        -16.18412544	          0.57135948	          0.00000000	          0.25098886	          0.00000000	          3.38883319	          0.00000000	          0.00000000	          0.00000000	          0.00000000	          0.13608734	          0.52976958	         -0.00749047	          0.00000000	          0.00000000	          0.00000000	          0.00000000	          0.00000000	          0.00000000	          0.64935251	          0.55599105	         -0.01642390	          0.00000000	          0.00000000	          0.00000000	
8.156	         33.31414100	        469.75372887	         -5.83571459	          0.22659019	          0.00000000	          0.26917188	          0.00000000	         -6.16378507	          0.00000000	        -34.07767074	        452.69559992	        -16.05167152	          0.57137562	          0.00000000	          0.25084106	          0.00000000	          3.39021479	          0.00000000	          0.00000000	          0.00000000	          0.00000000	          0.13611973	          0.52910613	         -0.00779701	          0.00000000	          0.00000000	          0.00000000	          0.00000000	          0.00000000	          0.00000000	          0.64931947	          0.55537018	         -0.01669313	          0.00000000	          0.00000000	          0.00000000	
8.157	         33.42670047	        470.38321844	         -5.80005098	          0.22658934	          0.00000000	          0.26921599	          0.00000000	         -6.18292097	          0.00000000	        -34.08435586	        452.99589023	        -15.91694520	          0.57139074	          0.00000000	          0.25069593	          0.00000000	          3.39152841	          0.00000000	          0.00000000	          0.00000000	          0.00000000	          0.13614697	          0.52844766	         -0.00810335	          0.00000000	          0.00000000	          0.00000000	          0.00000000	          0.00000000	          0.00000000	          0.64928642	          0.55475259	         -0.01696269	          0.00000000	          0.00000000	          0.00000000	
8.158	         33.54530802	        471.02169071	         -5.76232215	          0.22658826	          0.00000000	          0.26926116	          0.00000000	         -6.20219027	          0.00000000	        -34.09104019	        453.31287297	        -15.78016006	          0.57140484	          0.00000000	          0.25055361	          0.00000000	          3.39277370	          0.00000000	          0.00000000	          0.00000000	          0.00000000	          0.13616887	          0.52779425	         -0.00840946	          0.00000000	          0.00000000	          0.00000000	          0.00000000	          0.00000000	          0.00000000	          0.64925339	          0.55413827	         -0.01723255	          0.00000000	          0.00000000	          0.00000000	
8.159	         33.66969396	        471.66779299	         -5.72265851	          0.22658692	          0.00000000	          0.26930724	          0.00000000	         -6.22158161	          0.00000000	        -34.09774043	        453.64681255	        -15.64153610	          0.57141789	          0.00000000	          0.25041424	          0.00000000	          3.39395051	          0.00000000	          0.00000000	          0.00000000	          0.00000000	          0.13618525	          0.52714597	         -0.00871531	          0.00000000	          0.00000000	          0.00000000	          0.00000000	          0.00000000	          0.00000000	          0.64922038	          0.55352719	         -0.01750267	          0.00000000	          0.00000000	          0.00000000	
8.16	         33.79957071	        472.32015453	         -5.68120168	          0.22658528	          0.00000000	          0.26935407	          0.00000000	         -6.24108329	          0.00000000	        -34.10447496	        453.99793199	        -15.50129907	          0.57142990	          0.00000000	          0.25027793	          0.00000000	          3.39505886	          0.00000000	          0.00000000	          0.00000000	          0.00000000	          0.13619596	          0.52650289	         -0.00902085	          0.00000000	          0.00000000	          0.00000000	          0.00000000	          0.00000000	          0.00000000	          0.64918743	          0.55291935	         -0.01777303	          0.00000000	          0.00000000	          0.00000000	
